<?xml version="1.0" encoding="utf-8"?>
<!-- Generator: Adobe Illustrator 15.1.0, SVG Export Plug-In . SVG Version: 6.00 Build 0)  -->
<!DOCTYPE svg PUBLIC "-//W3C//DTD SVG 1.1//EN" "http://www.w3.org/Graphics/SVG/1.1/DTD/svg11.dtd">
<svg version="1.1" id="レイヤー_1" xmlns="http://www.w3.org/2000/svg" xmlns:xlink="http://www.w3.org/1999/xlink" x="0px"
	 y="0px" width="150px" height="50px" viewBox="0 0 150 50" enable-background="new 0 0 150 50" xml:space="preserve">
<g>
	<path fill="#FFFFFF" d="M13.271,33.793H3.963v-16.92H7.22v14.17h6.051V33.793z"/>
	<path fill="#FFFFFF" d="M24.424,30.889c0,1.078,0.044,2.156,0.176,2.904h-2.927l-0.198-1.275H21.41
		c-0.704,0.968-1.893,1.518-3.257,1.518c-2.266,0-3.674-1.693-3.674-3.674c0-3.146,2.794-4.621,6.689-4.621
		c0-1.21-0.418-2.134-2.2-2.134c-1.123,0-2.223,0.352-3.015,0.836l-0.616-2.112c0.814-0.484,2.333-1.034,4.247-1.034
		c3.807,0,4.841,2.42,4.841,5.105V30.889z M21.256,27.83c-1.76,0-3.586,0.418-3.586,2.201c0,1.166,0.726,1.672,1.54,1.672
		c0.771,0,2.046-0.551,2.046-2.112V27.83z"/>
	<path fill="#FFFFFF" d="M34.016,24.442c-0.242-0.044-0.506-0.066-0.836-0.066c-1.474,0-2.597,0.99-2.597,3.081v6.336h-3.256v-8.427
		c0-1.518-0.044-2.729-0.088-3.829h2.794l0.132,2.134h0.088c0.572-1.584,1.892-2.398,3.036-2.398c0.308,0,0.506,0.022,0.726,0.066
		V24.442z"/>
	<path fill="#FFFFFF" d="M44.972,30.889c0,1.078,0.044,2.156,0.176,2.904h-2.927l-0.198-1.275h-0.066
		c-0.704,0.968-1.893,1.518-3.257,1.518c-2.266,0-3.674-1.693-3.674-3.674c0-3.146,2.794-4.621,6.689-4.621
		c0-1.21-0.418-2.134-2.2-2.134c-1.122,0-2.223,0.352-3.015,0.836l-0.616-2.112c0.814-0.484,2.333-1.034,4.247-1.034
		c3.807,0,4.841,2.42,4.841,5.105V30.889z M41.803,27.83c-1.76,0-3.586,0.418-3.586,2.201c0,1.166,0.726,1.672,1.54,1.672
		c0.771,0,2.046-0.551,2.046-2.112V27.83z"/>
	<path fill="#FFFFFF" d="M58.062,21.538l-4.181,12.255h-3.146L46.62,21.538h3.499l1.606,5.941c0.264,1.057,0.484,2.068,0.682,3.125
		h0.066c0.198-1.057,0.418-2.047,0.682-3.125l1.541-5.941H58.062z"/>
	<path fill="#FFFFFF" d="M68.996,33.31c-1.013,0.44-2.442,0.704-3.961,0.704c-3.785,0-5.941-2.377-5.941-6.184
		c0-3.52,2.024-6.557,5.611-6.557c2.971,0,4.907,2.112,4.907,6.073c0,0.483-0.022,0.946-0.089,1.298h-7.327
		c0.088,2.09,1.584,2.927,3.344,2.927c1.211,0,2.156-0.22,2.993-0.507L68.996,33.31z M66.597,26.379
		c0.021-1.277-0.484-2.839-2.091-2.839c-1.562,0-2.222,1.628-2.31,2.839H66.597z"/>
	<path fill="#FFFFFF" d="M75.132,33.793h-3.256v-17.69h3.256V33.793z"/>
	<path fill="#FFFFFF" d="M103.008,27.699v2.42h-8.559v2.883c0,2.42-1.145,2.838-5.721,2.838c-0.154-0.748-0.66-1.848-1.057-2.553
		c0.902,0.045,1.893,0.066,2.598,0.066c1.363,0,1.473,0,1.473-0.439v-2.795h-8.514v-2.42h8.514v-1.52l1.299,0.066
		c0.572-0.374,1.123-0.814,1.629-1.276h-7.504v-2.289h9.99l0.418-0.132l2.002,1.188c-0.088,0.154-0.287,0.264-0.484,0.308
		c-1.1,1.167-2.75,2.597-4.467,3.653H103.008z M86.109,20.921v3.059h-2.486v-5.413h2.904c-0.395-0.748-0.99-1.606-1.539-2.289
		l2.244-0.99c0.814,0.902,1.738,2.135,2.111,3.015l-0.57,0.264h3.211c-0.352-0.858-0.902-1.937-1.43-2.772l2.332-0.858
		c0.727,1.034,1.52,2.398,1.805,3.345l-0.727,0.286h2.861c0.748-1.034,1.518-2.333,2.002-3.367c2.947,1.056,3.014,1.078,3.08,1.122
		c-0.133,0.198-0.373,0.242-0.639,0.22c-0.373,0.616-0.902,1.342-1.451,2.024h2.947v5.413h-2.596v-3.059H86.109z"/>
	<path fill="#FFFFFF" d="M104.854,22.704c1.475-0.418,3.652-1.144,5.809-1.87l0.352,1.87c-1.738,0.727-3.52,1.453-4.752,1.915
		c-0.021,0.198-0.109,0.33-0.285,0.396L104.854,22.704z M124.348,16.037v7.283c0,1.937-0.813,2.311-4.225,2.267
		c-0.109-0.616-0.418-1.43-0.703-2.002c0.836,0.044,1.826,0.044,2.09,0.044c0.287-0.022,0.375-0.088,0.375-0.33v-5.215h-4.248
		c0.902,0.462,1.938,1.1,2.465,1.584l-1.209,1.584l2.066-0.704l0.42,1.937c-1.871,0.726-3.83,1.474-5.105,1.936
		c-0.021,0.154-0.109,0.286-0.242,0.374l0.727,0.154c-0.066,0.154-0.242,0.264-0.572,0.242c-0.199,0.396-0.439,0.858-0.705,1.319
		h7.107v9.352h-2.684V35.07h-9.439v0.791h-2.574V26.51h4.994c0.176-0.418,0.352-0.857,0.506-1.275
		c-0.682,0.286-1.65,0.286-2.992,0.286c-0.088-0.572-0.396-1.342-0.66-1.87c0.748,0.022,1.605,0.022,1.848,0.022
		c0.266,0,0.354-0.088,0.354-0.308v-5.281h-4.291c0.902,0.484,1.936,1.145,2.465,1.672l-1.32,1.672
		c-0.572-0.616-1.826-1.474-2.816-2.024l1.1-1.32h-1.672v-2.046h8.91v7.349c0,0.418-0.021,0.749-0.109,1.012l1.76,0.374l-1.1-2.222
		c1.033-0.308,2.377-0.748,3.828-1.232c-0.615-0.616-1.848-1.408-2.795-1.937l1.057-1.298h-1.451v-2.046H124.348z M119.904,29.789
		v-1.276h-9.439v1.276H119.904z M110.465,33.067h9.439V31.77h-9.439V33.067z"/>
	<path fill="#FFFFFF" d="M145.953,16.543v16.15c0,2.618-1.102,3.037-5.457,2.992c-0.088-0.704-0.506-1.848-0.859-2.53
		c0.748,0.044,1.586,0.044,2.223,0.044c1.387,0,1.475,0,1.475-0.527v-3.346h-4.818v6.162h-2.574v-6.162h-4.512
		c-0.395,2.443-1.188,4.863-2.793,6.623c-0.418-0.506-1.496-1.408-2.092-1.738c2.422-2.662,2.619-6.623,2.619-9.747v-7.921H145.953z
		 M131.783,24.156c0,0.704,0,1.43-0.066,2.684h4.225v-2.684H131.783z M135.941,19.051h-4.158v2.641h4.158V19.051z M143.334,21.692
		v-2.641h-4.818v2.641H143.334z M138.516,26.84h4.818v-2.684h-4.818V26.84z"/>
</g>
</svg>
